<svg xmlns="http://www.w3.org/2000/svg" viewBox="0 0 32 32"><defs><style>.ab5550f5-0935-421a-8d17-3a9e1bacba72{fill:none;stroke:#a6a6a6;stroke-linecap:round;stroke-linejoin:round;}.f8b7be28-e41b-47de-9784-1b616703c3c6{fill:#a6a6a6;}</style></defs><g id="f4aa2ce6-a947-423c-8cb7-61c9ee6f8610" data-name="Layer 2"><path class="ab5550f5-0935-421a-8d17-3a9e1bacba72" d="M19.65577,2.74183A8,8,0,0,1,26,17.43029"/><path class="f8b7be28-e41b-47de-9784-1b616703c3c6" d="M21.27237,13.29555H16.14888V12.27907l2.418-2.57715a6.00389,6.00389,0,0,0,.737-.94975,1.53082,1.53082,0,0,0,.23843-.77006,1.14354,1.14354,0,0,0-.25155-.78318.90975.90975,0,0,0-.71873-.28464.98142.98142,0,0,0-.79345.34624,1.37438,1.37438,0,0,0-.28977.91153H16a2.445,2.445,0,0,1,.32628-1.2475,2.29759,2.29759,0,0,1,.92122-.88586,2.80718,2.80718,0,0,1,1.35018-.32058,2.65387,2.65387,0,0,1,1.79454.55445,1.96316,1.96316,0,0,1,.63886,1.56579,2.51327,2.51327,0,0,1-.28749,1.12943,6.27633,6.27633,0,0,1-.98568,1.33991l-1.69927,1.79168h3.21373Z"/><path class="f8b7be28-e41b-47de-9784-1b616703c3c6" d="M26.57041,10.48225h.84707v1.19617h-.84707v1.61713H25.08675V11.67842H22.0219l-.06674-.93435L25.07135,5.8208h1.49906Zm-3.13673,0h1.65307V7.8435l-.09754.16941Z"/><polyline class="ab5550f5-0935-421a-8d17-3a9e1bacba72" points="26.841 14.851 25.498 17.718 28.652 17.989"/><g id="a9e35db3-1a57-4839-a921-16f4629ebb37" data-name="Phone, Call, Contact, Handphone"><path class="f8b7be28-e41b-47de-9784-1b616703c3c6" d="M22,30C15.458,30,2,16.542,2,10A8.75673,8.75673,0,0,1,4.9668,2.92627,5.77992,5.77992,0,0,1,7.8999,2h.3999a4.05986,4.05986,0,0,1,3.38965,2.1416l2.67774,4.66016a2.10887,2.10887,0,0,1-.812,2.73047l-.90039.59961a.89782.89782,0,0,0-.34083,1.16259,15.11672,15.11672,0,0,0,6.57569,6.48487.9338.9338,0,0,0,1.10351-.18653l.79981-.7998a2.144,2.144,0,0,1,2.0498-.563,1.00795,1.00795,0,0,1,.15821.0542l4.7998,2.09961A3.75111,3.75111,0,0,1,30,23.7002v.3999a4.37773,4.37773,0,0,1-.91943,2.5249A8.69573,8.69573,0,0,1,22,30ZM7.8999,4a3.75515,3.75515,0,0,0-1.74463.53223A6.74667,6.74667,0,0,0,4,10c0,5.3833,12.6167,18,18,18a6.71649,6.71649,0,0,0,5.49951-2.6001A2.467,2.467,0,0,0,28,24.1001v-.3999a1.76728,1.76728,0,0,0-1.00684-1.48682l-4.688-2.05078a.10131.10131,0,0,0-.09815.04443l-.7998.79981a2.96573,2.96573,0,0,1-3.2583.62988A16.99612,16.99612,0,0,1,10.479,14.08984a2.87947,2.87947,0,0,1,1.09131-3.63818l.875-.5835c.11621-.07763.147-.14453.14844-.16211L9.93262,5.09814c-.01709-.02978-.03272-.06054-.04688-.09179A2.096,2.096,0,0,0,8.2998,4Z"/></g></g></svg>