<svg xmlns="http://www.w3.org/2000/svg" viewBox="0 0 32 32"><defs><style>.a679e6db-9d77-4a31-b306-86751aeb33ce{fill:#a6a6a6;}</style></defs><g id="b3269996-cd72-47bc-a032-105014f8b550" data-name="Layer 1"><g id="a48d3af8-1768-487a-91c1-b5a5dba17fae" data-name="Phone, Call, Contact, Handphone"><path class="a679e6db-9d77-4a31-b306-86751aeb33ce" d="M22,30C15.458,30,2,16.542,2,10A8.75673,8.75673,0,0,1,4.9668,2.92627,5.77992,5.77992,0,0,1,7.8999,2h.3999a4.05986,4.05986,0,0,1,3.38965,2.1416l2.67774,4.66016a2.10887,2.10887,0,0,1-.812,2.73047l-.90039.59961a.89782.89782,0,0,0-.34083,1.16259,15.11672,15.11672,0,0,0,6.57569,6.48487.9338.9338,0,0,0,1.10351-.18653l.79981-.7998a2.144,2.144,0,0,1,2.0498-.563,1.00795,1.00795,0,0,1,.15821.0542l4.7998,2.09961A3.75111,3.75111,0,0,1,30,23.7002v.3999a4.37773,4.37773,0,0,1-.91943,2.5249A8.69573,8.69573,0,0,1,22,30ZM7.8999,4a3.75515,3.75515,0,0,0-1.74463.53223A6.74667,6.74667,0,0,0,4,10c0,5.3833,12.6167,18,18,18a6.71649,6.71649,0,0,0,5.49951-2.6001A2.467,2.467,0,0,0,28,24.1001v-.3999a1.76728,1.76728,0,0,0-1.00684-1.48682l-4.688-2.05078a.10131.10131,0,0,0-.09815.04443l-.7998.79981a2.96573,2.96573,0,0,1-3.2583.62988A16.99612,16.99612,0,0,1,10.479,14.08984a2.87947,2.87947,0,0,1,1.09131-3.63818l.875-.5835c.11621-.07763.147-.14453.14844-.16211L9.93262,5.09814c-.01709-.02978-.03272-.06054-.04688-.09179A2.096,2.096,0,0,0,8.2998,4Z"/></g></g></svg>