<svg xmlns="http://www.w3.org/2000/svg" viewBox="0 0 32 32"><defs><style>.a{fill:#c6c6c6;}</style></defs><path class="a" d="M8.7,22.2c0-1.5.1-3,0-4.5a1.6,1.6,0,0,0-1.6-1.5,1.6,1.6,0,0,0-1.6,1.6v8.9a1.6,1.6,0,0,0,1.6,1.5,1.4,1.4,0,0,0,1.6-1.5c.1-1.5,0-3,0-4.5m3.4-6h12V4.1h-12ZM9.9,27.1H26.4a.9.9,0,0,0,1-1V18.4a1,1,0,0,0-.9-1.1H9.9ZM6.7,29.3l-.8-.2a2.7,2.7,0,0,1-1.5-2.4,13.3,13.3,0,0,1,0-2V17.9a2.7,2.7,0,0,1,2.2-2.8,2.4,2.4,0,0,1,2.5.9l.5.2H11V3.5c0-.3.2-.5.6-.5h13a.7.7,0,0,1,.7.6V16.2h.9a2.2,2.2,0,0,1,2.4,2.3c-.1,2.2,0,4.3-.1,6.4a7.5,7.5,0,0,1,0,1.5,2.2,2.2,0,0,1-2,1.9H9.6a.6.6,0,0,0-.5.2,2.8,2.8,0,0,1-1.5.8H6.7Z"/><path class="a" d="M13.2,21.6H24.1V19.5H13.2Zm5.4-3.2h6c.5,0,.7.2.7.7v3c0,.5-.2.7-.7.7H12.8c-.5,0-.7-.2-.7-.7V19c0-.5.2-.6.7-.6h5.8"/><path class="a" d="M18.1,11.8H14.4l-.5-.2c-.3-.2-.2-.7.2-.9h7.6c.5,0,.8.2.8.5s-.3.6-.8.6H18.1"/><path class="a" d="M14.3,7.4a.7.7,0,0,1-.6-.4.9.9,0,0,1,.3-.7h7.9c.4,0,.6.2.6.5a.5.5,0,0,1-.6.6"/><path class="a" d="M21.9,8.5a.6.6,0,0,1,.6.6.6.6,0,0,1-.6.5H14.3a.5.5,0,0,1-.5-.3.6.6,0,0,1,0-.6c.1-.2.3-.2.5-.2"/><path class="a" d="M18.1,14H14.3a.7.7,0,0,1-.6-.4.8.8,0,0,1,.3-.7h7.9c.4,0,.6.2.6.5a.5.5,0,0,1-.6.6H18.1"/></svg>